<svg width="221" height="221" viewBox="0 0 221 221" fill="none" xmlns="http://www.w3.org/2000/svg">
<rect width="221" height="221" fill="#E6E7E8"/>
<path d="M21 90.9531H200V130.109H21V90.9531Z" fill="#E6E7E8"/>
<path d="M172.031 49H48.9688C30.4339 49 21 62.7746 21 79.7656V90.9531H200V79.7656C200 62.7746 190.566 49 172.031 49Z" fill="#FF9933"/>
<path d="M21 141.297C21 158.288 30.4339 172.062 48.9688 172.062H172.031C190.566 172.062 200 158.288 200 141.297V130.109H21V141.297Z" fill="#128807"/>
<path fill-rule="evenodd" clip-rule="evenodd" d="M111.367 92.5837C114.941 92.5837 118.434 93.6438 121.405 95.6297C124.376 97.6157 126.691 100.438 128.057 103.74C129.423 107.042 129.779 110.676 129.08 114.18C128.381 117.685 126.658 120.903 124.129 123.428C121.6 125.953 118.379 127.671 114.874 128.365C111.368 129.058 107.735 128.697 104.436 127.325C101.136 125.954 98.3166 123.634 96.3353 120.66C94.3539 117.686 93.2993 114.192 93.3048 110.618C93.313 105.833 95.2195 101.246 98.6058 97.865C101.992 94.4839 106.582 92.5845 111.367 92.5837V92.5837ZM99.3265 100.401C99.637 100.753 99.6929 101.131 99.4859 101.447C99.3982 101.593 99.2628 101.703 99.1028 101.76C98.9799 101.806 98.8477 101.821 98.7177 101.805C98.5876 101.788 98.4635 101.74 98.356 101.665C97.8698 102.361 97.4423 103.097 97.0778 103.864C97.5001 104.14 97.64 104.487 97.5001 104.87C97.4253 105.065 97.2774 105.224 97.0879 105.311C96.8983 105.399 96.682 105.409 96.4849 105.34C96.2835 105.743 95.8388 107.444 95.8332 107.802C96.0184 107.837 96.1849 107.937 96.3031 108.084C96.4279 108.23 96.492 108.418 96.4821 108.61C96.4289 109.136 96.1045 109.359 95.6095 109.379C95.5311 109.885 95.5395 111.58 95.6179 111.913C96.1437 111.969 96.4206 112.198 96.4653 112.598C96.5268 113.029 96.3199 113.309 95.8164 113.504C95.9675 114.335 96.1828 115.152 96.4653 115.952C96.6625 115.892 96.8738 115.899 97.0666 115.971C97.254 116.052 97.4023 116.192 97.4806 116.385C97.5505 116.536 97.5645 116.693 97.5281 116.858C97.502 116.98 97.4478 117.095 97.3696 117.193C97.2914 117.291 97.1916 117.37 97.0778 117.423C97.4526 118.2 97.8665 118.933 98.356 119.621C98.7923 119.406 99.1727 119.456 99.43 119.764C99.5432 119.89 99.6077 120.053 99.6118 120.222C99.6205 120.348 99.5985 120.473 99.5479 120.588C99.4972 120.703 99.4193 120.804 99.3209 120.883C99.8803 121.537 100.476 122.136 101.125 122.687C101.491 122.365 101.872 122.315 102.199 122.544C102.347 122.647 102.451 122.784 102.498 122.952C102.532 123.071 102.539 123.196 102.519 123.318C102.499 123.44 102.451 123.556 102.381 123.657C103.088 124.144 103.818 124.563 104.582 124.927C104.878 124.51 105.217 124.37 105.583 124.51C105.743 124.567 105.881 124.672 105.98 124.809C106.12 125.033 106.14 125.279 106.059 125.542C106.864 125.827 107.675 126.046 108.514 126.194C108.679 125.721 108.965 125.5 109.345 125.528C109.521 125.542 109.681 125.595 109.82 125.716C110.016 125.895 110.108 126.121 110.092 126.401C110.953 126.462 111.795 126.468 112.631 126.401C112.693 125.861 112.908 125.59 113.342 125.528C113.506 125.505 113.674 125.539 113.817 125.623C113.922 125.682 114.012 125.765 114.081 125.863C114.149 125.962 114.195 126.075 114.214 126.194C115.059 126.037 115.878 125.822 116.67 125.539C116.6 125.011 116.729 124.695 117.084 124.53C117.213 124.474 117.355 124.452 117.495 124.465C117.64 124.477 117.772 124.521 117.878 124.616C117.982 124.703 118.068 124.809 118.169 124.918C118.931 124.559 119.663 124.137 120.356 123.657C120.071 123.21 120.239 122.782 120.471 122.591C120.552 122.522 120.646 122.469 120.747 122.437C120.849 122.404 120.956 122.392 121.062 122.401C121.168 122.41 121.272 122.44 121.366 122.49C121.46 122.539 121.544 122.607 121.612 122.689C122.258 122.136 122.865 121.534 123.408 120.888C123.092 120.527 123.03 120.147 123.262 119.82C123.356 119.673 123.5 119.566 123.668 119.518C123.787 119.48 123.913 119.47 124.037 119.489C124.161 119.508 124.278 119.555 124.381 119.627C124.87 118.922 125.295 118.192 125.659 117.426C125.251 117.151 125.103 116.83 125.226 116.463C125.27 116.301 125.369 116.158 125.505 116.058C125.614 115.982 125.739 115.933 125.87 115.913C126.001 115.894 126.134 115.905 126.26 115.946C126.442 115.552 126.895 113.89 126.92 113.488C126.727 113.452 126.552 113.349 126.428 113.197C126.363 113.121 126.314 113.033 126.285 112.938C126.256 112.842 126.246 112.742 126.258 112.643C126.268 112.466 126.342 112.298 126.465 112.17C126.549 112.082 126.652 112.013 126.766 111.969C126.88 111.926 127.003 111.908 127.125 111.919C127.195 111.073 127.195 110.222 127.125 109.376C126.59 109.323 126.336 109.116 126.266 108.694C126.235 108.534 126.258 108.368 126.333 108.224C126.391 108.112 126.474 108.015 126.575 107.941C126.676 107.867 126.794 107.817 126.918 107.796C126.771 106.96 126.553 106.139 126.266 105.34C125.749 105.427 125.43 105.287 125.259 104.929C125.215 104.833 125.19 104.73 125.186 104.624C125.182 104.519 125.2 104.414 125.237 104.315C125.274 104.217 125.331 104.126 125.403 104.05C125.476 103.973 125.563 103.912 125.659 103.869C125.297 103.1 124.869 102.364 124.381 101.668C123.931 101.883 123.564 101.833 123.307 101.525C123.193 101.395 123.129 101.229 123.128 101.055C123.123 100.933 123.146 100.81 123.197 100.698C123.247 100.586 123.323 100.487 123.419 100.409C122.866 99.7629 122.265 99.1598 121.62 98.6054C121.234 98.9354 120.86 98.9774 120.541 98.7481C120.396 98.6515 120.29 98.5068 120.242 98.3397C120.207 98.2224 120.199 98.0986 120.22 97.9779C120.24 97.8572 120.288 97.7427 120.359 97.6433C119.662 97.1573 118.926 96.7297 118.158 96.3651C117.87 96.7791 117.545 96.9161 117.179 96.793C117.017 96.7411 116.875 96.6393 116.773 96.5022C116.7 96.393 116.653 96.268 116.636 96.1373C116.619 96.0066 116.634 95.8739 116.678 95.7498C115.88 95.4613 115.059 95.2432 114.223 95.0981C114.063 95.5512 113.775 95.7862 113.403 95.7638C113.229 95.7582 113.062 95.6953 112.928 95.5848C112.828 95.5007 112.75 95.3936 112.701 95.2728C112.652 95.152 112.633 95.021 112.645 94.8912C111.8 94.8194 110.951 94.8203 110.106 94.894C110.047 95.3974 109.829 95.6855 109.457 95.747C109.29 95.7827 109.115 95.761 108.962 95.6855C108.847 95.6289 108.748 95.5458 108.672 95.4432C108.596 95.3406 108.546 95.2213 108.525 95.0953C107.689 95.2474 106.867 95.4672 106.067 95.7526C106.156 96.2476 106.017 96.5721 105.675 96.7483C105.527 96.8238 105.371 96.8546 105.197 96.8238C105.067 96.806 104.943 96.7547 104.839 96.6747C104.734 96.5948 104.653 96.4891 104.601 96.3679C104.123 96.5469 102.602 97.4279 102.4 97.6489C102.607 98.0628 102.56 98.4292 102.274 98.6921C102.194 98.7633 102.1 98.8176 101.998 98.8517C101.896 98.8858 101.788 98.8991 101.681 98.8908C101.573 98.8824 101.469 98.8526 101.374 98.8031C101.278 98.7536 101.194 98.6854 101.125 98.6026C100.48 99.1543 99.8782 99.7556 99.3265 100.401" fill="#010088"/>
<path fill-rule="evenodd" clip-rule="evenodd" d="M119.114 124.032C119.081 123.995 119.047 123.97 119.022 123.931C117.396 121.445 115.765 118.963 114.13 116.483C114.094 116.413 114.052 116.343 114.018 116.265C113.638 115.378 113.266 114.492 112.877 113.608C112.864 113.562 112.846 113.518 112.824 113.476C112.668 113.535 112.525 113.602 112.357 113.667L112.413 113.809C112.763 114.668 113.098 115.529 113.453 116.388C113.549 116.617 113.588 116.858 113.638 117.098C113.912 118.382 114.169 119.671 114.446 120.958L115.392 125.553C115.396 125.564 115.398 125.576 115.397 125.588C115.395 125.6 115.391 125.611 115.383 125.62L115.344 125.522C114.578 123.176 113.792 120.832 113.023 118.486C112.869 118.027 112.732 117.574 112.564 117.115C112.486 116.886 112.461 116.651 112.424 116.413C112.326 115.747 112.242 115.076 112.133 114.41C112.119 114.251 112.094 114.094 112.072 113.941C112.065 113.877 112.055 113.813 112.041 113.75C111.873 113.767 111.719 113.79 111.552 113.809C111.552 113.876 111.557 113.946 111.563 114.016C111.661 114.836 111.745 115.658 111.862 116.475C111.924 116.922 111.893 117.361 111.868 117.809C111.851 118.186 111.826 118.564 111.809 118.944C111.759 119.711 111.719 120.474 111.666 121.238L111.582 122.815C111.535 123.71 111.479 124.602 111.431 125.492C111.409 125.743 111.403 126.001 111.378 126.247L111.311 125.399L111.224 123.565L111.124 121.928C111.096 121.369 111.059 120.813 111.029 120.253C111.003 119.887 110.989 119.52 110.967 119.16C110.936 118.581 110.9 118.002 110.872 117.428C110.844 117.123 110.852 116.815 110.894 116.511C110.953 116.097 110.998 115.675 111.048 115.255C111.104 114.841 111.152 114.424 111.202 114.016C111.208 113.952 111.208 113.885 111.216 113.809L110.727 113.745C110.713 113.857 110.687 113.966 110.668 114.078C110.552 114.932 110.432 115.786 110.31 116.64C110.276 116.972 110.145 117.28 110.033 117.591C109.171 120.214 108.307 122.84 107.435 125.461C107.415 125.508 107.407 125.553 107.37 125.598C107.37 125.564 107.37 125.539 107.384 125.508C107.745 123.741 108.109 121.97 108.483 120.203C108.724 119.028 108.973 117.856 109.211 116.684L109.278 116.491C109.639 115.605 109.985 114.71 110.355 113.823C110.367 113.771 110.386 113.72 110.41 113.672C110.256 113.606 110.102 113.542 109.946 113.479C109.927 113.529 109.896 113.571 109.879 113.622C109.493 114.511 109.116 115.403 108.73 116.293C108.705 116.36 108.675 116.424 108.64 116.486C106.99 118.986 105.344 121.489 103.704 123.995C103.681 124.033 103.652 124.066 103.617 124.093C103.631 124.049 103.656 124.012 103.673 123.973L107.717 115.954C107.752 115.882 107.795 115.813 107.846 115.75L109.574 113.432C109.611 113.392 109.633 113.356 109.666 113.314C109.524 113.211 109.409 113.116 109.267 113.006C109.236 113.043 109.208 113.074 109.183 113.11C108.579 113.868 107.983 114.631 107.393 115.387C107.326 115.457 107.264 115.529 107.188 115.594C104.985 117.565 102.781 119.526 100.568 121.501C100.524 121.537 100.479 121.576 100.423 121.601C100.448 121.576 100.462 121.545 100.479 121.526C102.294 119.498 104.095 117.473 105.902 115.445C106.005 115.333 106.109 115.222 106.207 115.101C106.414 114.861 106.646 114.648 106.898 114.458L108.906 112.878C108.95 112.844 108.984 112.808 109.034 112.774C108.935 112.64 108.833 112.509 108.727 112.38C108.682 112.408 108.646 112.436 108.604 112.467C107.835 113.043 107.063 113.613 106.293 114.192C106.207 114.257 106.116 114.314 106.019 114.363C103.393 115.689 100.753 117.014 98.121 118.34C98.0707 118.362 98.0231 118.39 97.9644 118.39L98.0707 118.315L102.982 115.099C103.838 114.536 104.696 113.974 105.547 113.409C105.619 113.367 105.695 113.331 105.759 113.297C106.651 112.92 107.541 112.539 108.425 112.159C108.467 112.142 108.509 112.125 108.559 112.1L108.372 111.639C108.318 111.653 108.285 111.667 108.243 111.681C107.337 112.042 106.439 112.408 105.527 112.766C105.34 112.836 105.136 112.869 104.937 112.911L98.8258 114.181C98.0567 114.346 97.2735 114.508 96.5016 114.668C96.4705 114.675 96.4378 114.671 96.4093 114.657C96.6219 114.589 96.8344 114.514 97.0442 114.444C99.6844 113.574 102.322 112.707 104.954 111.832C105.161 111.762 105.382 111.742 105.591 111.709C106.442 111.591 107.289 111.468 108.131 111.348C108.183 111.339 108.234 111.328 108.285 111.314C108.268 111.152 108.243 110.99 108.229 110.822L107.821 110.867L106.131 111.071C105.815 111.113 105.502 111.147 105.191 111.186C105.116 111.194 105.043 111.197 104.971 111.194L103.192 111.091L102.14 111.032L100.328 110.926L97.6847 110.78C97.047 110.747 96.4261 110.705 95.7912 110.66C95.8919 110.651 96.0038 110.635 96.1128 110.635L98.2804 110.512L101.144 110.349L103.516 110.215L105.004 110.126C105.063 110.123 105.133 110.131 105.191 110.137L106.898 110.341L108.106 110.486H108.229C108.243 110.327 108.268 110.176 108.285 110.003C108.181 109.98 108.064 109.963 107.96 109.944C107.214 109.84 106.472 109.731 105.726 109.622C105.571 109.604 105.416 109.584 105.261 109.561C105.176 109.549 105.092 109.529 105.01 109.502C102.786 108.772 100.577 108.036 98.3559 107.306C97.7379 107.104 97.1207 106.899 96.5044 106.691C96.4512 106.677 96.4009 106.653 96.3562 106.621L96.7449 106.699L101.491 107.687C102.761 107.952 104.05 108.215 105.32 108.484C105.397 108.501 105.471 108.524 105.544 108.554C106.439 108.906 107.326 109.27 108.229 109.628L108.363 109.681C108.425 109.527 108.492 109.379 108.559 109.219C108.513 109.192 108.466 109.169 108.416 109.15C107.527 108.775 106.64 108.392 105.754 108.008C105.684 107.979 105.617 107.944 105.552 107.905C103.044 106.263 100.546 104.613 98.0343 102.968C98.0012 102.95 97.9747 102.922 97.9588 102.887L98.0595 102.943C100.56 104.202 103.063 105.46 105.569 106.716C105.983 106.923 106.386 107.172 106.755 107.455C107.365 107.927 107.986 108.38 108.606 108.845C108.648 108.875 108.685 108.903 108.73 108.931L109.037 108.543L108.928 108.448L106.654 106.66C106.576 106.599 106.514 106.534 106.447 106.467C104.467 104.249 102.484 102.029 100.51 99.8108C100.481 99.7879 100.459 99.758 100.445 99.7241C100.504 99.7297 100.526 99.7688 100.551 99.794C101.751 100.857 102.94 101.92 104.131 102.982L107.214 105.729C107.27 105.779 107.323 105.841 107.373 105.897L109.138 108.14C109.183 108.19 109.216 108.243 109.267 108.31L109.672 108C109.647 107.961 109.613 107.93 109.594 107.894C109.018 107.125 108.444 106.353 107.863 105.586C107.803 105.496 107.748 105.403 107.697 105.307C106.355 102.664 105.024 100.009 103.69 97.3635C103.664 97.3132 103.639 97.274 103.634 97.2209C103.659 97.2489 103.684 97.274 103.701 97.2992L106.559 101.668L108.581 104.744C108.651 104.862 108.73 104.985 108.774 105.114C109.152 105.975 109.515 106.839 109.882 107.701C109.907 107.74 109.924 107.782 109.949 107.832L110.413 107.639L110.363 107.522C110.013 106.649 109.672 105.777 109.317 104.909C109.219 104.689 109.183 104.459 109.135 104.23C108.83 102.773 108.537 101.313 108.232 99.8527C107.932 98.4487 107.647 97.0559 107.353 95.6462C107.348 95.6379 107.353 95.6267 107.365 95.5987L107.611 96.3455C108.489 98.9829 109.359 101.626 110.22 104.269C110.293 104.476 110.318 104.703 110.349 104.918C110.452 105.651 110.556 106.389 110.673 107.127C110.693 107.267 110.701 107.407 110.729 107.561L111.216 107.499V107.315C111.146 106.73 111.071 106.143 111.003 105.561C110.961 105.22 110.931 104.887 110.883 104.554C110.855 104.33 110.855 104.104 110.883 103.88C110.903 103.5 110.931 103.122 110.947 102.745L111.085 100.465C111.11 100.057 111.118 99.643 111.143 99.2346C111.18 98.7032 111.208 98.1634 111.238 97.6292C111.264 97.2377 111.283 96.8433 111.3 96.4545C111.322 95.9931 111.359 95.5344 111.398 95.0757C111.409 95.2015 111.415 95.3302 111.42 95.4644C111.459 96.0266 111.487 96.5888 111.521 97.1538L111.666 99.7157L111.753 101.153C111.798 101.984 111.837 102.817 111.884 103.648C111.898 103.774 111.904 103.891 111.912 104.014C111.949 104.339 111.884 104.661 111.856 104.982L111.677 106.448C111.649 106.725 111.608 107.002 111.574 107.281C111.568 107.348 111.568 107.421 111.549 107.502C111.722 107.527 111.879 107.544 112.052 107.567C112.077 107.446 112.089 107.334 112.108 107.217C112.242 106.308 112.371 105.399 112.5 104.484C112.511 104.417 112.539 104.347 112.556 104.277C113.467 101.542 114.362 98.8039 115.269 96.063C115.313 95.9371 115.347 95.8169 115.417 95.6966C115.409 95.7604 115.399 95.8238 115.386 95.8868C114.978 97.867 114.553 99.8416 114.147 101.816C113.965 102.742 113.772 103.67 113.579 104.596C113.566 104.673 113.541 104.747 113.507 104.817L112.427 107.516C112.407 107.555 112.393 107.597 112.374 107.648C112.542 107.712 112.679 107.776 112.841 107.841L112.905 107.706L114.032 105.058C114.077 104.968 114.111 104.882 114.169 104.809L119.05 97.3635C119.081 97.3244 119.106 97.2852 119.154 97.2572C119.134 97.2964 119.12 97.3356 119.095 97.3747L115.081 105.346C115.039 105.421 114.997 105.497 114.947 105.564C114.365 106.339 113.781 107.113 113.207 107.883C113.18 107.927 113.149 107.969 113.115 108.008L113.512 108.319C113.544 108.286 113.573 108.25 113.599 108.213C114.192 107.457 114.782 106.699 115.383 105.944C115.45 105.859 115.524 105.781 115.604 105.709C117.814 103.735 120.026 101.763 122.238 99.794C122.275 99.7632 122.3 99.7325 122.359 99.7157L122.286 99.8052C121.383 100.826 120.479 101.841 119.562 102.857C118.471 104.073 117.394 105.287 116.312 106.504C116.256 106.565 116.189 106.618 116.13 106.669L113.856 108.456L113.744 108.545C113.851 108.68 113.946 108.808 114.058 108.943L114.178 108.853L116.508 107.108C116.567 107.065 116.629 107.026 116.692 106.99C119.377 105.642 122.045 104.3 124.714 102.952C124.758 102.932 124.795 102.915 124.842 102.915C124.719 102.996 124.605 103.075 124.482 103.15C122.068 104.736 119.654 106.322 117.232 107.908C117.165 107.947 117.103 107.986 117.031 108.017C116.138 108.403 115.238 108.783 114.354 109.166L114.211 109.222C114.287 109.379 114.34 109.527 114.407 109.684L114.536 109.642C115.434 109.287 116.326 108.915 117.232 108.571C117.456 108.481 117.702 108.442 117.945 108.392L122.065 107.536C123.346 107.273 124.616 107.004 125.9 106.739C126.017 106.713 126.126 106.688 126.249 106.666C126.28 106.666 126.308 106.66 126.353 106.677L125.961 106.806C123.229 107.709 120.504 108.61 117.772 109.502C117.565 109.575 117.336 109.594 117.12 109.628C116.508 109.72 115.904 109.801 115.308 109.888C115.09 109.919 114.874 109.952 114.656 109.98L114.497 110.008C114.513 110.173 114.539 110.327 114.55 110.506L114.972 110.461L116.482 110.282C116.86 110.235 117.254 110.182 117.649 110.145C117.825 110.131 118.004 110.148 118.186 110.156C118.569 110.173 118.952 110.207 119.352 110.224L121.612 110.358C121.948 110.377 122.283 110.391 122.63 110.414L124.935 110.545C125.48 110.579 126.042 110.604 126.585 110.637C126.719 110.645 126.854 110.657 126.988 110.674L126.579 110.707L124.887 110.8L122.792 110.923L121.212 111.007C120.485 111.051 119.744 111.093 119.011 111.141C118.608 111.158 118.194 111.197 117.789 111.2C117.556 111.205 117.313 111.161 117.087 111.135C116.59 111.077 116.093 111.017 115.596 110.956L114.642 110.842H114.55C114.539 111.004 114.513 111.163 114.497 111.334C115.483 111.48 116.469 111.623 117.456 111.762C117.747 111.798 118.001 111.913 118.275 112L126.23 114.626C126.281 114.637 126.33 114.659 126.372 114.69C126.305 114.679 126.241 114.668 126.174 114.662L119.265 113.222L117.442 112.841C117.383 112.825 117.305 112.802 117.24 112.772C116.343 112.416 115.442 112.053 114.539 111.692L114.418 111.65C114.353 111.803 114.285 111.955 114.214 112.106L114.362 112.176C115.255 112.556 116.141 112.934 117.028 113.317C117.098 113.348 117.168 113.384 117.24 113.434L124.686 118.312C124.722 118.34 124.77 118.374 124.8 118.427C124.764 118.404 124.722 118.39 124.691 118.368L120.812 116.421C119.458 115.733 118.093 115.051 116.726 114.363C116.639 114.32 116.557 114.266 116.482 114.204C115.713 113.63 114.936 113.054 114.167 112.475C114.132 112.446 114.096 112.42 114.058 112.397C113.951 112.525 113.856 112.651 113.744 112.785L113.851 112.869C114.6 113.468 115.364 114.066 116.116 114.662C116.202 114.723 116.28 114.795 116.348 114.875L122.275 121.506C122.299 121.539 122.318 121.576 122.331 121.615C122.3 121.582 122.258 121.559 122.227 121.534C120.004 119.546 117.777 117.568 115.548 115.582C115.498 115.538 115.453 115.487 115.414 115.431L113.602 113.121C113.577 113.085 113.546 113.051 113.515 113.015C113.386 113.121 113.26 113.216 113.132 113.328C113.143 113.362 113.168 113.398 113.191 113.432L114.95 115.775C115 115.844 115.045 115.916 115.084 115.991C116.418 118.637 117.749 121.288 119.081 123.937C119.103 123.973 119.117 124.013 119.123 124.054H119.114V124.032Z" fill="#010088"/>
<path fill-rule="evenodd" clip-rule="evenodd" d="M119.086 124.032C119.114 124.06 119.131 124.091 119.154 124.116C119.14 124.121 119.14 124.13 119.123 124.133C119.117 124.093 119.098 124.068 119.092 124.032H119.086" fill="#010088"/>
</svg>
